<svg xmlns="http://www.w3.org/2000/svg" xmlns:xlink="http://www.w3.org/1999/xlink" width="500" zoomAndPan="magnify" viewBox="0 0 375 374.999991" height="500" preserveAspectRatio="xMidYMid meet" version="1.2"><defs><clipPath id="cf04594e20"><path d="M 58.589844 29.003906 L 316.589844 29.003906 L 316.589844 346.253906 L 58.589844 346.253906 Z M 58.589844 29.003906 "/></clipPath></defs><g id="66efd9ce8d"><rect x="0" width="375" y="0" height="374.999991" style="fill:#ffffff;fill-opacity:1;stroke:none;"/><rect x="0" width="375" y="0" height="374.999991" style="fill:#ffffff;fill-opacity:1;stroke:none;"/><g clip-rule="nonzero" clip-path="url(#cf04594e20)"><path style=" stroke:none;fill-rule:nonzero;fill:#000000;fill-opacity:1;" d="M 308.507812 137.265625 C 287.371094 150.324219 274.316406 172.707031 274.316406 197.578125 C 274.316406 225.558594 291.101562 251.050781 316.589844 261.621094 C 311.617188 277.785156 304.15625 292.707031 294.832031 306.386719 C 281.15625 325.660156 266.855469 345.558594 245.71875 345.558594 C 224.582031 345.558594 218.363281 333.121094 193.496094 333.121094 C 169.25 333.121094 160.546875 346.179688 140.652344 346.179688 C 120.757812 346.179688 107.082031 328.148438 91.539062 305.765625 C 71.023438 274.675781 59.210938 238.613281 58.589844 200.6875 C 58.589844 139.132812 98.378906 106.179688 138.167969 106.179688 C 159.304688 106.179688 176.710938 119.859375 189.765625 119.859375 C 202.199219 119.859375 222.09375 105.558594 245.71875 105.558594 C 270.585938 104.9375 294.210938 116.75 308.507812 137.265625 Z M 234.527344 79.445312 C 245.097656 67.007812 250.691406 51.464844 251.3125 35.296875 C 251.3125 33.433594 251.3125 30.945312 250.691406 29.082031 C 232.664062 30.945312 215.878906 39.652344 204.066406 53.328125 C 193.496094 65.144531 187.28125 80.066406 186.660156 96.230469 C 186.660156 98.097656 186.660156 99.960938 187.28125 101.828125 C 188.523438 101.828125 190.386719 102.449219 191.632812 102.449219 C 208.417969 101.207031 223.960938 92.5 234.527344 79.445312 Z M 234.527344 79.445312 "/></g></g></svg>