<svg xmlns="http://www.w3.org/2000/svg" xmlns:xlink="http://www.w3.org/1999/xlink" width="500" zoomAndPan="magnify" viewBox="0 0 375 374.999991" height="500" preserveAspectRatio="xMidYMid meet" version="1.2"><defs><clipPath id="714d8145fc"><path d="M 21.027344 21.027344 L 354.027344 21.027344 L 354.027344 353 L 21.027344 353 Z M 21.027344 21.027344 "/></clipPath><clipPath id="7aacf30185"><path d="M 119 86 L 262 86 L 262 354.027344 L 119 354.027344 Z M 119 86 "/></clipPath></defs><g id="1ac6639e4b"><rect x="0" width="375" y="0" height="374.999991" style="fill:#ffffff;fill-opacity:1;stroke:none;"/><rect x="0" width="375" y="0" height="374.999991" style="fill:#ffffff;fill-opacity:1;stroke:none;"/><g clip-rule="nonzero" clip-path="url(#714d8145fc)"><path style=" stroke:none;fill-rule:nonzero;fill:#1877f2;fill-opacity:1;" d="M 354.027344 187.527344 C 354.027344 95.574219 279.484375 21.027344 187.527344 21.027344 C 95.574219 21.027344 21.027344 95.574219 21.027344 187.527344 C 21.027344 270.632812 81.914062 339.515625 161.511719 352.007812 L 161.511719 235.65625 L 119.238281 235.65625 L 119.238281 187.527344 L 161.511719 187.527344 L 161.511719 150.847656 C 161.511719 109.117188 186.371094 86.066406 224.402344 86.066406 C 242.621094 86.066406 261.671875 89.320312 261.671875 89.320312 L 261.671875 130.292969 L 240.679688 130.292969 C 219.996094 130.292969 213.542969 143.128906 213.542969 156.296875 L 213.542969 187.527344 L 259.722656 187.527344 L 252.339844 235.65625 L 213.542969 235.65625 L 213.542969 352.007812 C 293.140625 339.515625 354.027344 270.632812 354.027344 187.527344 "/></g><g clip-rule="nonzero" clip-path="url(#7aacf30185)"><path style=" stroke:none;fill-rule:nonzero;fill:#ffffff;fill-opacity:1;" d="M 252.339844 235.65625 L 259.722656 187.527344 L 213.542969 187.527344 L 213.542969 156.296875 C 213.542969 143.128906 219.996094 130.292969 240.679688 130.292969 L 261.671875 130.292969 L 261.671875 89.320312 C 261.671875 89.320312 242.621094 86.066406 224.402344 86.066406 C 186.371094 86.066406 161.511719 109.117188 161.511719 150.847656 L 161.511719 187.527344 L 119.238281 187.527344 L 119.238281 235.65625 L 161.511719 235.65625 L 161.511719 352.007812 C 169.992188 353.335938 178.679688 354.027344 187.527344 354.027344 C 196.378906 354.027344 205.066406 353.335938 213.542969 352.007812 L 213.542969 235.65625 L 252.339844 235.65625 "/></g></g></svg>