<?xml version="1.0" standalone="no"?>
<!DOCTYPE svg PUBLIC "-//W3C//DTD SVG 20010904//EN"
 "http://www.w3.org/TR/2001/REC-SVG-20010904/DTD/svg10.dtd">
<svg version="1.0" xmlns="http://www.w3.org/2000/svg"
 width="512.000000pt" height="512.000000pt" viewBox="0 0 512.000000 512.000000"
 preserveAspectRatio="xMidYMid meet">

<g transform="translate(0.000000,512.000000) scale(0.100000,-0.100000)"
fill="#000000" stroke="none">
<path d="M1235 4799 c-755 -103 -1298 -780 -1227 -1531 25 -269 116 -506 280
-728 67 -90 2126 -2159 2191 -2201 50 -32 85 -36 136 -15 53 22 2126 2093
2219 2216 123 164 213 362 258 573 29 138 31 398 4 537 -84 431 -354 795 -736
994 -340 177 -734 209 -1097 90 -222 -72 -405 -189 -592 -378 l-104 -105 -122
117 c-67 64 -158 143 -202 175 -160 114 -347 196 -541 237 -113 24 -359 34
-467 19z m402 -305 c147 -30 277 -83 403 -165 36 -24 146 -122 245 -220 99
-97 194 -184 212 -193 37 -19 80 -21 120 -5 15 5 106 88 203 183 96 95 204
193 240 218 130 91 306 163 462 188 113 18 351 9 454 -18 329 -87 599 -310
744 -614 177 -372 130 -825 -121 -1157 -37 -50 -432 -449 -1052 -1066 l-992
-985 -933 933 c-514 512 -972 975 -1020 1027 -102 113 -163 204 -213 320 -183
415 -99 897 212 1225 98 103 183 165 314 230 232 116 479 149 722 99z"/>
</g>
</svg>
