<?xml version="1.0" standalone="no"?>
<!DOCTYPE svg PUBLIC "-//W3C//DTD SVG 20010904//EN"
 "http://www.w3.org/TR/2001/REC-SVG-20010904/DTD/svg10.dtd">
<svg version="1.0" xmlns="http://www.w3.org/2000/svg"
 width="512.000000pt" height="512.000000pt" viewBox="0 0 512.000000 512.000000"
 preserveAspectRatio="xMidYMid meet">

<g transform="translate(0.000000,512.000000) scale(0.100000,-0.100000)"
fill="#000000" stroke="none">
<path d="M3271 4840 c-80 -17 -178 -52 -235 -84 -196 -108 -344 -297 -396
-503 l-11 -43 -1120 0 c-1240 0 -1163 4 -1212 -64 -17 -24 -22 -45 -22 -93 0
-70 19 -104 76 -138 33 -20 54 -20 1155 -23 l1121 -2 28 -85 c106 -327 415
-549 760 -547 138 1 236 25 363 88 194 98 372 319 407 506 l7 37 272 3 c250 3
274 5 305 23 75 44 102 135 63 212 -40 77 -42 77 -355 83 l-278 5 -30 89 c-41
124 -99 217 -193 312 -96 96 -185 151 -316 195 -83 28 -111 32 -220 35 -69 2
-145 -1 -169 -6z m351 -357 c106 -53 174 -122 225 -229 31 -65 37 -88 41 -170
8 -161 -39 -278 -156 -387 -275 -255 -725 -94 -793 283 -40 223 106 458 331
532 42 14 80 17 161 15 102 -2 109 -4 191 -44z"/>
<path d="M1347 3344 c-288 -52 -531 -269 -617 -551 l-22 -72 -168 -3 c-153 -3
-171 -5 -197 -24 -98 -73 -98 -195 0 -268 26 -19 44 -21 197 -24 l168 -3 22
-72 c87 -286 330 -500 625 -552 104 -18 162 -19 257 -4 304 47 549 257 644
554 l22 70 1235 5 c1234 5 1236 5 1264 26 98 73 98 195 0 268 -28 21 -30 21
-1264 26 l-1235 5 -22 70 c-95 297 -340 507 -644 554 -91 14 -168 13 -265 -5z
m316 -334 c132 -50 246 -174 288 -311 28 -91 23 -225 -10 -312 -31 -80 -105
-173 -173 -219 -266 -181 -619 -66 -729 238 -17 45 -22 82 -22 154 0 72 5 109
22 154 56 155 176 267 334 311 74 21 215 14 290 -15z"/>
<path d="M3325 1860 c-314 -39 -575 -252 -670 -545 l-28 -85 -1121 -2 c-1101
-3 -1122 -3 -1155 -23 -49 -29 -73 -67 -79 -123 -6 -66 18 -115 73 -147 l42
-25 1121 0 1121 0 11 -42 c57 -223 234 -434 442 -527 123 -55 181 -66 338 -66
137 1 150 2 240 33 132 46 221 101 316 196 94 95 152 188 193 312 l30 89 278
5 c302 5 297 5 345 65 18 24 23 42 23 92 0 70 -19 104 -76 138 -31 18 -55 20
-305 23 l-272 3 -7 37 c-22 120 -115 273 -232 383 -165 154 -412 237 -628 209z
m186 -324 c128 -27 234 -102 309 -218 53 -82 73 -164 68 -280 -3 -83 -8 -103
-41 -171 -49 -105 -129 -185 -232 -234 -66 -31 -89 -37 -171 -41 -117 -6 -199
14 -282 68 -167 108 -253 294 -222 478 33 198 180 355 373 397 81 18 118 18
198 1z"/>
</g>
</svg>
