<svg xmlns="http://www.w3.org/2000/svg" xmlns:xlink="http://www.w3.org/1999/xlink" width="500" zoomAndPan="magnify" viewBox="0 0 375 374.999991" height="500" preserveAspectRatio="xMidYMid meet" version="1.2"><g id="76c5626ea7"><rect x="0" width="375" y="0" height="374.999991" style="fill:#ffffff;fill-opacity:1;stroke:none;"/><rect x="0" width="375" y="0" height="374.999991" style="fill:#ffffff;fill-opacity:1;stroke:none;"/><path style=" stroke:none;fill-rule:nonzero;fill:#4285f4;fill-opacity:1;" d="M 319.5 190.625 C 319.5 180.875 318.625 171.5 317 162.5 L 187.5 162.5 L 187.5 215.6875 L 261.5 215.6875 C 258.3125 232.875 248.625 247.4375 234.0625 257.1875 L 234.0625 291.6875 L 278.5 291.6875 C 304.5 267.75 319.5 232.5 319.5 190.625 Z M 319.5 190.625 "/><path style=" stroke:none;fill-rule:nonzero;fill:#34a853;fill-opacity:1;" d="M 187.5 325 C 224.625 325 255.75 312.6875 278.5 291.6875 L 234.0625 257.1875 C 221.75 265.4375 206 270.3125 187.5 270.3125 C 151.6875 270.3125 121.375 246.125 110.5625 213.625 L 64.625 213.625 L 64.625 249.25 C 87.25 294.1875 133.75 325 187.5 325 Z M 187.5 325 "/><path style=" stroke:none;fill-rule:nonzero;fill:#fbbc05;fill-opacity:1;" d="M 110.5625 213.625 C 107.8125 205.375 106.25 196.5625 106.25 187.5 C 106.25 178.4375 107.8125 169.625 110.5625 161.375 L 110.5625 125.75 L 64.625 125.75 C 59.8125 135.332031 56.171875 145.335938 53.699219 155.769531 C 51.230469 166.203125 49.996094 176.777344 50 187.5 C 50 209.6875 55.3125 230.6875 64.625 249.25 Z M 110.5625 213.625 "/><path style=" stroke:none;fill-rule:nonzero;fill:#ea4335;fill-opacity:1;" d="M 187.5 104.6875 C 207.6875 104.6875 225.8125 111.625 240.0625 125.25 L 279.5 85.8125 C 255.6875 63.625 224.5625 50 187.5 50 C 133.75 50 87.25 80.8125 64.625 125.75 L 110.5625 161.375 C 121.375 128.875 151.6875 104.6875 187.5 104.6875 Z M 187.5 104.6875 "/></g></svg>