<svg xmlns="http://www.w3.org/2000/svg" xmlns:xlink="http://www.w3.org/1999/xlink" width="500" zoomAndPan="magnify" viewBox="0 0 375 374.999991" height="500" preserveAspectRatio="xMidYMid meet" version="1.2"><defs><clipPath id="b759992663"><path d="M 290 133.976562 L 318 133.976562 L 318 195 L 290 195 Z M 290 133.976562 "/></clipPath><clipPath id="86aa1717fc"><path d="M 242.488281 182.1875 L 303.679688 182.1875 L 303.679688 204.222656 L 242.488281 204.222656 Z M 242.488281 182.1875 "/></clipPath><clipPath id="81eb712f36"><path d="M 305 182.1875 L 366.105469 182.1875 L 366.105469 204.222656 L 305 204.222656 Z M 305 182.1875 "/></clipPath></defs><g id="81f14e2018"><rect x="0" width="375" y="0" height="374.999991" style="fill:#ffffff;fill-opacity:1;stroke:none;"/><rect x="0" width="375" y="0" height="374.999991" style="fill:#ffffff;fill-opacity:1;stroke:none;"/><g style="fill:#b88917;fill-opacity:1;"><g transform="translate(5.822001, 174.795783)"><path style="stroke:none" d="M 100.015625 -77.921875 L 100.015625 -12.265625 C 100.015625 -9.878906 100.289062 -7.597656 100.84375 -5.421875 C 101.394531 -3.253906 103.117188 -1.875 106.015625 -1.28125 L 105.890625 0 L 86.34375 0 L 86.21875 -1.28125 C 88.351562 -1.707031 89.863281 -2.644531 90.75 -4.09375 C 91.644531 -5.539062 92.09375 -7.285156 92.09375 -9.328125 L 92.09375 -32.578125 L 71.78125 -32.578125 C 70.507812 -26.273438 69.019531 -20.484375 67.3125 -15.203125 C 65.613281 -9.921875 63.335938 -5.320312 60.484375 -1.40625 C 57.628906 2.507812 53.773438 5.53125 48.921875 7.65625 C 44.066406 9.789062 37.804688 10.859375 30.140625 10.859375 C 24.953125 10.859375 20.117188 9.984375 15.640625 8.234375 C 11.171875 6.492188 7.550781 3.789062 4.78125 0.125 C 2.019531 -3.53125 0.640625 -8.253906 0.640625 -14.046875 C 0.640625 -18.898438 1.851562 -23.113281 4.28125 -26.6875 C 6.707031 -30.269531 9.921875 -33.039062 13.921875 -35 C 17.921875 -36.957031 22.265625 -37.9375 26.953125 -37.9375 C 30.703125 -37.9375 34.382812 -37.253906 38 -35.890625 C 41.625 -34.523438 44.625 -32.5 47 -29.8125 C 49.382812 -27.132812 50.578125 -23.710938 50.578125 -19.546875 C 50.578125 -16.648438 49.722656 -14.070312 48.015625 -11.8125 C 46.316406 -9.5625 43.894531 -8.4375 40.75 -8.4375 C 38.019531 -8.4375 35.566406 -9.347656 33.390625 -11.171875 C 31.222656 -13.003906 30.140625 -15.328125 30.140625 -18.140625 L 30.140625 -20.828125 C 31.160156 -19.117188 32.351562 -17.859375 33.71875 -17.046875 C 35.082031 -16.242188 36.316406 -15.84375 37.421875 -15.84375 C 39.378906 -15.84375 40.890625 -16.585938 41.953125 -18.078125 C 43.023438 -19.566406 43.5625 -21.160156 43.5625 -22.859375 C 43.5625 -25.753906 42.726562 -28.160156 41.0625 -30.078125 C 39.40625 -31.992188 37.296875 -33.441406 34.734375 -34.421875 C 32.179688 -35.398438 29.585938 -35.890625 26.953125 -35.890625 C 22.953125 -35.890625 19.503906 -34.78125 16.609375 -32.5625 C 13.710938 -30.351562 11.5 -27.546875 9.96875 -24.140625 C 8.4375 -20.734375 7.671875 -17.15625 7.671875 -13.40625 C 7.671875 -6.507812 9.519531 -1.125 13.21875 2.75 C 16.925781 6.625 22.144531 8.5625 28.875 8.5625 C 34.238281 8.5625 38.8125 7.328125 42.59375 4.859375 C 46.382812 2.390625 49.597656 -0.90625 52.234375 -5.03125 C 54.878906 -9.164062 57.179688 -13.832031 59.140625 -19.03125 C 61.097656 -24.226562 62.972656 -29.550781 64.765625 -35 C 66.640625 -40.625 68.578125 -46.09375 70.578125 -51.40625 C 72.578125 -56.726562 74.976562 -61.5 77.78125 -65.71875 C 80.59375 -69.9375 84.046875 -73.148438 88.140625 -75.359375 L 72.046875 -75.359375 C 68.460938 -75.359375 64.945312 -75.0625 61.5 -74.46875 C 58.050781 -73.875 54.898438 -72.875 52.046875 -71.46875 C 49.191406 -70.0625 46.910156 -68.226562 45.203125 -65.96875 C 43.503906 -63.71875 42.65625 -60.929688 42.65625 -57.609375 C 42.65625 -54.710938 43.550781 -52.113281 45.34375 -49.8125 C 47.132812 -47.519531 49.601562 -46.375 52.75 -46.375 C 54.539062 -46.375 56.304688 -46.816406 58.046875 -47.703125 C 59.796875 -48.597656 60.671875 -49.984375 60.671875 -51.859375 C 60.671875 -52.796875 60.4375 -53.625 59.96875 -54.34375 C 59.5 -55.070312 58.753906 -55.4375 57.734375 -55.4375 C 56.710938 -55.4375 55.863281 -54.628906 55.1875 -53.015625 C 54.582031 -53.691406 54.195312 -54.347656 54.03125 -54.984375 C 53.863281 -55.628906 53.78125 -56.164062 53.78125 -56.59375 C 53.78125 -57.945312 54.269531 -59.070312 55.25 -59.96875 C 56.226562 -60.863281 57.441406 -61.3125 58.890625 -61.3125 C 60.929688 -61.3125 62.523438 -60.609375 63.671875 -59.203125 C 64.828125 -57.796875 65.40625 -56.113281 65.40625 -54.15625 C 65.40625 -51.945312 64.765625 -50.070312 63.484375 -48.53125 C 62.203125 -47 60.601562 -45.867188 58.6875 -45.140625 C 56.769531 -44.421875 54.789062 -44.0625 52.75 -44.0625 C 49.851562 -44.0625 47.128906 -44.53125 44.578125 -45.46875 C 42.023438 -46.40625 39.957031 -47.894531 38.375 -49.9375 C 36.800781 -51.988281 36.015625 -54.628906 36.015625 -57.859375 C 36.015625 -61.609375 36.863281 -64.757812 38.5625 -67.3125 C 40.269531 -69.863281 42.488281 -71.90625 45.21875 -73.4375 C 47.945312 -74.976562 50.90625 -76.109375 54.09375 -76.828125 C 57.289062 -77.554688 60.378906 -77.921875 63.359375 -77.921875 Z M 72.421875 -35.765625 L 92.09375 -35.890625 L 92.09375 -74.21875 C 88.863281 -73.28125 86.140625 -71.445312 83.921875 -68.71875 C 81.703125 -66 79.890625 -62.804688 78.484375 -59.140625 C 77.085938 -55.484375 75.960938 -51.738281 75.109375 -47.90625 C 74.253906 -44.070312 73.488281 -40.578125 72.8125 -37.421875 C 72.726562 -36.992188 72.660156 -36.695312 72.609375 -36.53125 C 72.566406 -36.363281 72.503906 -36.109375 72.421875 -35.765625 Z M 72.421875 -35.765625 "/></g></g><g style="fill:#b88917;fill-opacity:1;"><g transform="translate(112.990724, 174.795783)"><path style="stroke:none" d="M 25.15625 -50.203125 C 28.3125 -50.203125 31.035156 -49.347656 33.328125 -47.640625 C 35.628906 -45.941406 36.78125 -43.472656 36.78125 -40.234375 C 36.78125 -37.847656 36.015625 -35.71875 34.484375 -33.84375 C 32.953125 -31.976562 30.867188 -31.046875 28.234375 -31.046875 C 26.097656 -31.046875 24.328125 -31.957031 22.921875 -33.78125 C 21.523438 -35.613281 20.738281 -37.722656 20.5625 -40.109375 C 21.664062 -39.085938 22.6875 -38.363281 23.625 -37.9375 C 24.5625 -37.507812 25.457031 -37.296875 26.3125 -37.296875 C 27.59375 -37.296875 28.550781 -37.804688 29.1875 -38.828125 C 29.820312 -39.847656 30.140625 -40.914062 30.140625 -42.03125 C 30.140625 -43.476562 29.671875 -44.773438 28.734375 -45.921875 C 27.796875 -47.066406 26.476562 -47.640625 24.78125 -47.640625 C 22.144531 -47.640625 20.035156 -46.832031 18.453125 -45.21875 C 16.878906 -43.601562 15.707031 -41.582031 14.9375 -39.15625 C 14.175781 -36.726562 13.644531 -34.234375 13.34375 -31.671875 C 13.050781 -29.117188 12.90625 -26.945312 12.90625 -25.15625 C 12.820312 -22.351562 12.78125 -19.546875 12.78125 -16.734375 C 12.78125 -13.921875 12.78125 -11.109375 12.78125 -8.296875 C 12.78125 -6.515625 13.222656 -5.003906 14.109375 -3.765625 C 15.003906 -2.535156 16.390625 -1.707031 18.265625 -1.28125 L 18.015625 0 L 0.390625 0 L 0.125 -1.28125 C 2.164062 -1.789062 3.570312 -2.679688 4.34375 -3.953125 C 5.113281 -5.234375 5.5 -6.8125 5.5 -8.6875 C 5.5 -11.582031 5.5 -14.429688 5.5 -17.234375 C 5.5 -20.046875 5.453125 -22.859375 5.359375 -25.671875 L 5.359375 -42.53125 C 5.359375 -43.894531 4.804688 -44.789062 3.703125 -45.21875 C 2.597656 -45.644531 1.445312 -45.859375 0.25 -45.859375 L 0 -47.140625 L 13.03125 -50.203125 L 13.03125 -41.390625 C 14.21875 -43.773438 15.8125 -45.835938 17.8125 -47.578125 C 19.820312 -49.328125 22.269531 -50.203125 25.15625 -50.203125 Z M 25.15625 -50.203125 "/></g></g><g style="fill:#b88917;fill-opacity:1;"><g transform="translate(150.161279, 174.795783)"><path style="stroke:none" d="M 22.859375 -4.859375 L 23.765625 -4.09375 C 22.828125 -2.46875 21.523438 -1.226562 19.859375 -0.375 C 18.203125 0.46875 16.4375 0.890625 14.5625 0.890625 C 12.007812 0.890625 10.132812 0.273438 8.9375 -0.953125 C 7.75 -2.191406 6.984375 -3.75 6.640625 -5.625 C 6.296875 -7.5 6.125 -9.414062 6.125 -11.375 L 6.125 -46.625 L 0.390625 -46.625 L 0.125 -47.640625 C 4.125 -49.597656 6.910156 -51.8125 8.484375 -54.28125 C 10.066406 -56.75 11.453125 -59.644531 12.640625 -62.96875 L 13.796875 -62.71875 L 13.796875 -49.3125 L 22.359375 -49.3125 L 22.359375 -46.625 L 13.796875 -46.625 C 13.796875 -43.5625 13.796875 -40.492188 13.796875 -37.421875 C 13.796875 -34.359375 13.753906 -31.253906 13.671875 -28.109375 C 13.671875 -24.953125 13.648438 -21.816406 13.609375 -18.703125 C 13.566406 -15.597656 13.546875 -12.429688 13.546875 -9.203125 C 13.546875 -7.835938 13.710938 -6.390625 14.046875 -4.859375 C 14.390625 -3.328125 15.410156 -2.5625 17.109375 -2.5625 C 18.046875 -2.5625 19.046875 -2.789062 20.109375 -3.25 C 21.179688 -3.71875 22.097656 -4.253906 22.859375 -4.859375 Z M 22.859375 -4.859375 "/></g></g><g style="fill:#b88917;fill-opacity:1;"><g transform="translate(174.430716, 174.795783)"><path style="stroke:none" d="M 22.21875 -10.984375 L 22.21875 -13.15625 C 22.21875 -15.113281 22.789062 -16.921875 23.9375 -18.578125 C 25.09375 -20.242188 26.78125 -21.078125 29 -21.078125 C 31.71875 -21.078125 33.820312 -20.179688 35.3125 -18.390625 C 36.800781 -16.609375 37.546875 -14.476562 37.546875 -12 C 37.546875 -9.28125 36.757812 -6.960938 35.1875 -5.046875 C 33.613281 -3.128906 31.632812 -1.660156 29.25 -0.640625 C 26.863281 0.378906 24.4375 0.890625 21.96875 0.890625 C 17.195312 0.890625 13.34375 -0.40625 10.40625 -3 C 7.46875 -5.59375 5.359375 -8.828125 4.078125 -12.703125 C 2.804688 -16.578125 2.171875 -20.472656 2.171875 -24.390625 C 2.171875 -27.378906 2.488281 -30.382812 3.125 -33.40625 C 3.769531 -36.425781 4.816406 -39.210938 6.265625 -41.765625 C 7.710938 -44.316406 9.691406 -46.359375 12.203125 -47.890625 C 14.710938 -49.429688 17.796875 -50.203125 21.453125 -50.203125 C 25.628906 -50.203125 28.84375 -49.15625 31.09375 -47.0625 C 33.351562 -44.976562 34.953125 -42.335938 35.890625 -39.140625 C 36.828125 -35.953125 37.296875 -32.695312 37.296875 -29.375 L 37.296875 -28.109375 L 10.984375 -28.109375 C 10.898438 -27.503906 10.835938 -26.90625 10.796875 -26.3125 C 10.753906 -25.71875 10.734375 -25.078125 10.734375 -24.390625 C 10.734375 -22.347656 10.921875 -20.003906 11.296875 -17.359375 C 11.679688 -14.722656 12.34375 -12.191406 13.28125 -9.765625 C 14.21875 -7.335938 15.554688 -5.335938 17.296875 -3.765625 C 19.046875 -2.191406 21.285156 -1.40625 24.015625 -1.40625 C 26.054688 -1.40625 27.800781 -2 29.25 -3.1875 C 30.695312 -4.382812 31.421875 -6.003906 31.421875 -8.046875 C 31.421875 -9.578125 31.035156 -10.9375 30.265625 -12.125 C 29.503906 -13.320312 28.269531 -13.921875 26.5625 -13.921875 C 25.207031 -13.921875 23.757812 -12.941406 22.21875 -10.984375 Z M 21.453125 -47.90625 C 19.492188 -47.90625 17.875 -47.285156 16.59375 -46.046875 C 15.320312 -44.816406 14.320312 -43.265625 13.59375 -41.390625 C 12.875 -39.515625 12.34375 -37.578125 12 -35.578125 C 11.664062 -33.578125 11.410156 -31.804688 11.234375 -30.265625 L 30.265625 -30.265625 C 30.179688 -31.710938 30.007812 -33.4375 29.75 -35.4375 C 29.5 -37.445312 29.078125 -39.410156 28.484375 -41.328125 C 27.890625 -43.242188 27.015625 -44.816406 25.859375 -46.046875 C 24.710938 -47.285156 23.242188 -47.90625 21.453125 -47.90625 Z M 21.453125 -47.90625 "/></g></g><g style="fill:#b88917;fill-opacity:1;"><g transform="translate(213.900487, 174.795783)"><path style="stroke:none" d="M 12.265625 -42.40625 C 12.265625 -40.28125 13.203125 -38.21875 15.078125 -36.21875 C 16.953125 -34.21875 19.035156 -32.191406 21.328125 -30.140625 C 24.222656 -27.753906 26.90625 -25.15625 29.375 -22.34375 C 31.84375 -19.539062 33.078125 -16.304688 33.078125 -12.640625 C 33.078125 -8.210938 31.628906 -4.847656 28.734375 -2.546875 C 25.835938 -0.253906 22.304688 0.890625 18.140625 0.890625 C 15.328125 0.890625 12.617188 0.378906 10.015625 -0.640625 C 7.421875 -1.660156 5.269531 -3.191406 3.5625 -5.234375 C 1.863281 -7.273438 1.015625 -9.832031 1.015625 -12.90625 C 1.015625 -15.113281 1.675781 -16.960938 3 -18.453125 C 4.320312 -19.941406 6.175781 -20.6875 8.5625 -20.6875 C 10.851562 -20.6875 12.703125 -19.625 14.109375 -17.5 C 15.515625 -15.375 16.304688 -13.078125 16.484375 -10.609375 C 15.878906 -11.367188 15.210938 -12.003906 14.484375 -12.515625 C 13.765625 -13.023438 13.023438 -13.28125 12.265625 -13.28125 C 10.898438 -13.28125 9.875 -12.832031 9.1875 -11.9375 C 8.507812 -11.050781 8.171875 -9.96875 8.171875 -8.6875 C 8.171875 -6.132812 9.234375 -4.257812 11.359375 -3.0625 C 13.492188 -1.875 15.710938 -1.28125 18.015625 -1.28125 C 20.484375 -1.28125 22.738281 -1.832031 24.78125 -2.9375 C 26.820312 -4.039062 27.84375 -5.957031 27.84375 -8.6875 C 27.84375 -10.894531 26.820312 -13.109375 24.78125 -15.328125 C 22.738281 -17.546875 20.484375 -19.757812 18.015625 -21.96875 C 15.117188 -24.519531 12.367188 -27.203125 9.765625 -30.015625 C 7.171875 -32.828125 5.875 -35.976562 5.875 -39.46875 C 5.875 -42.53125 7 -45.082031 9.25 -47.125 C 11.507812 -49.175781 14.175781 -50.203125 17.25 -50.203125 C 18.863281 -50.203125 20.457031 -50.050781 22.03125 -49.75 C 23.601562 -49.457031 25.203125 -49.3125 26.828125 -49.3125 C 27.585938 -49.3125 28.304688 -49.375 28.984375 -49.5 C 29.671875 -49.625 30.269531 -49.859375 30.78125 -50.203125 L 30.78125 -35.375 L 29.640625 -35.125 C 28.953125 -37 28.078125 -38.914062 27.015625 -40.875 C 25.953125 -42.832031 24.628906 -44.515625 23.046875 -45.921875 C 21.472656 -47.328125 19.582031 -48.03125 17.375 -48.03125 C 15.664062 -48.03125 14.382812 -47.453125 13.53125 -46.296875 C 12.6875 -45.148438 12.265625 -43.851562 12.265625 -42.40625 Z M 12.265625 -42.40625 "/></g></g><g style="fill:#b88917;fill-opacity:1;"><g transform="translate(100.184141, 270.450981)"><path style="stroke:none" d="M 77.921875 -23.375 L 77.921875 -23.5 C 77.492188 -25.375 76.554688 -27.117188 75.109375 -28.734375 C 73.660156 -30.359375 71.742188 -31.171875 69.359375 -31.171875 L 66.546875 -31.171875 C 66.628906 -30.316406 66.671875 -29.421875 66.671875 -28.484375 C 66.671875 -27.546875 66.671875 -26.609375 66.671875 -25.671875 C 66.671875 -20.484375 66.222656 -15.179688 65.328125 -9.765625 C 64.441406 -4.359375 62.847656 0.617188 60.546875 5.171875 C 58.242188 9.722656 55.046875 13.382812 50.953125 16.15625 C 46.867188 18.925781 41.59375 20.3125 35.125 20.3125 C 31.289062 20.3125 27.519531 19.585938 23.8125 18.140625 C 20.113281 16.691406 17.070312 14.519531 14.6875 11.625 C 12.300781 8.726562 11.109375 5.148438 11.109375 0.890625 C 11.109375 -2.847656 12.191406 -6.101562 14.359375 -8.875 C 16.535156 -11.644531 19.671875 -13.03125 23.765625 -13.03125 C 25.972656 -13.03125 27.863281 -12.347656 29.4375 -10.984375 C 31.019531 -9.617188 31.8125 -7.832031 31.8125 -5.625 C 31.8125 -5.019531 31.703125 -4.269531 31.484375 -3.375 C 31.273438 -2.488281 31 -1.492188 30.65625 -0.390625 C 29.207031 -3.453125 27.332031 -4.984375 25.03125 -4.984375 C 22.394531 -4.984375 20.4375 -3.957031 19.15625 -1.90625 C 17.882812 0.132812 17.25 2.300781 17.25 4.59375 C 17.25 7.320312 18.054688 9.6875 19.671875 11.6875 C 21.285156 13.6875 23.304688 15.21875 25.734375 16.28125 C 28.160156 17.351562 30.65625 17.890625 33.21875 17.890625 C 38.488281 17.890625 42.675781 16.71875 45.78125 14.375 C 48.894531 12.03125 51.257812 8.984375 52.875 5.234375 C 54.5 1.484375 55.566406 -2.554688 56.078125 -6.890625 C 56.585938 -11.234375 56.84375 -15.453125 56.84375 -19.546875 C 56.84375 -20.566406 56.84375 -21.585938 56.84375 -22.609375 C 56.84375 -23.628906 56.800781 -24.648438 56.71875 -25.671875 L 56.71875 -31.171875 L 56.59375 -31.171875 C 55.226562 -31.171875 53.710938 -31.019531 52.046875 -30.71875 C 50.390625 -30.414062 48.941406 -29.816406 47.703125 -28.921875 C 46.472656 -28.035156 45.859375 -26.738281 45.859375 -25.03125 C 45.859375 -23.675781 46.113281 -22.335938 46.625 -21.015625 C 47.132812 -19.691406 48.03125 -18.648438 49.3125 -17.890625 L 48.921875 -16.859375 C 46.703125 -17.023438 44.695312 -17.832031 42.90625 -19.28125 C 41.125 -20.726562 40.234375 -22.601562 40.234375 -24.90625 C 40.234375 -27.71875 41.171875 -29.757812 43.046875 -31.03125 C 44.921875 -32.3125 47.15625 -33.097656 49.75 -33.390625 C 52.351562 -33.691406 54.675781 -33.84375 56.71875 -33.84375 C 56.71875 -36.570312 56.820312 -39.703125 57.03125 -43.234375 C 57.25 -46.773438 57.738281 -50.332031 58.5 -53.90625 C 59.269531 -57.476562 60.421875 -60.734375 61.953125 -63.671875 C 63.484375 -66.609375 65.613281 -68.84375 68.34375 -70.375 C 63.65625 -71.488281 58.945312 -72.445312 54.21875 -73.25 C 49.5 -74.0625 44.753906 -74.46875 39.984375 -74.46875 C 36.148438 -74.46875 32.273438 -74.125 28.359375 -73.4375 C 24.441406 -72.757812 20.820312 -71.566406 17.5 -69.859375 C 14.175781 -68.160156 11.492188 -65.820312 9.453125 -62.84375 C 7.410156 -59.863281 6.390625 -56.117188 6.390625 -51.609375 C 6.390625 -48.367188 7.023438 -45.109375 8.296875 -41.828125 C 9.578125 -38.554688 11.492188 -35.832031 14.046875 -33.65625 C 16.609375 -31.488281 19.71875 -30.40625 23.375 -30.40625 C 25.5 -30.40625 27.625 -30.765625 29.75 -31.484375 C 31.882812 -32.210938 33.675781 -33.320312 35.125 -34.8125 C 36.570312 -36.300781 37.296875 -38.191406 37.296875 -40.484375 C 37.296875 -41.929688 36.847656 -43.164062 35.953125 -44.1875 C 35.054688 -45.21875 33.84375 -45.734375 32.3125 -45.734375 C 31.550781 -45.734375 30.785156 -45.410156 30.015625 -44.765625 C 29.253906 -44.128906 28.570312 -43.34375 27.96875 -42.40625 C 27.375 -43.6875 27.078125 -44.878906 27.078125 -45.984375 C 27.078125 -47.773438 27.691406 -49.367188 28.921875 -50.765625 C 30.160156 -52.171875 31.71875 -52.875 33.59375 -52.875 C 36.320312 -52.875 38.492188 -51.914062 40.109375 -50 C 41.722656 -48.09375 42.53125 -45.859375 42.53125 -43.296875 C 42.53125 -39.722656 41.488281 -36.828125 39.40625 -34.609375 C 37.320312 -32.398438 34.722656 -30.785156 31.609375 -29.765625 C 28.503906 -28.742188 25.421875 -28.234375 22.359375 -28.234375 C 15.878906 -28.234375 10.550781 -30.0625 6.375 -33.71875 C 2.207031 -37.382812 0.125 -42.492188 0.125 -49.046875 C 0.125 -53.816406 1.53125 -58.203125 4.34375 -62.203125 C 7.15625 -66.203125 10.519531 -69.441406 14.4375 -71.921875 C 19.113281 -74.722656 23.769531 -76.53125 28.40625 -77.34375 C 33.050781 -78.15625 38.0625 -78.5625 43.4375 -78.5625 C 49.820312 -78.5625 56.226562 -78.070312 62.65625 -77.09375 C 69.082031 -76.113281 75.445312 -75.023438 81.75 -73.828125 L 81.75 -72.6875 L 81.109375 -72.421875 C 79.921875 -72.085938 78.625 -71.726562 77.21875 -71.34375 C 75.8125 -70.957031 74.640625 -70.425781 73.703125 -69.75 C 72.085938 -68.632812 70.789062 -66.988281 69.8125 -64.8125 C 68.832031 -62.644531 68.109375 -60.265625 67.640625 -57.671875 C 67.171875 -55.078125 66.867188 -52.519531 66.734375 -50 C 66.609375 -47.488281 66.546875 -45.300781 66.546875 -43.4375 L 66.546875 -33.84375 L 69.359375 -33.84375 C 71.828125 -33.84375 73.785156 -34.671875 75.234375 -36.328125 C 76.679688 -37.992188 77.578125 -39.722656 77.921875 -41.515625 L 79.203125 -41.390625 L 79.203125 -23.5 Z M 77.921875 -23.375 "/></g></g><g style="fill:#b88917;fill-opacity:1;"><g transform="translate(185.76584, 270.450981)"><path style="stroke:none" d="M 13.546875 -73.453125 L 13.546875 -72.546875 C 13.546875 -67.179688 13.546875 -61.835938 13.546875 -56.515625 C 13.546875 -51.203125 13.5 -45.859375 13.40625 -40.484375 C 13.40625 -35.117188 13.382812 -29.753906 13.34375 -24.390625 C 13.300781 -19.023438 13.28125 -13.660156 13.28125 -8.296875 C 13.28125 -6.515625 13.726562 -5.003906 14.625 -3.765625 C 15.519531 -2.535156 16.90625 -1.707031 18.78125 -1.28125 L 18.515625 0 L 0.890625 0 L 0.640625 -1.28125 C 2.679688 -1.789062 4.082031 -2.679688 4.84375 -3.953125 C 5.613281 -5.234375 6 -6.8125 6 -8.6875 C 6 -10.132812 6 -11.5625 6 -12.96875 C 6 -14.375 5.957031 -15.753906 5.875 -17.109375 L 5.875 -65.78125 C 5.875 -66.976562 5.296875 -67.8125 4.140625 -68.28125 C 2.992188 -68.75 1.867188 -68.984375 0.765625 -68.984375 L 0.640625 -70.25 Z M 13.546875 -73.453125 "/></g></g><g style="fill:#b88917;fill-opacity:1;"><g transform="translate(205.309127, 270.450981)"><path style="stroke:none" d="M 21.328125 -50.203125 C 24.816406 -50.203125 27.796875 -49.410156 30.265625 -47.828125 C 32.742188 -46.253906 34.75 -44.171875 36.28125 -41.578125 C 37.8125 -38.984375 38.914062 -36.171875 39.59375 -33.140625 C 40.28125 -30.117188 40.625 -27.160156 40.625 -24.265625 C 40.625 -21.453125 40.257812 -18.554688 39.53125 -15.578125 C 38.8125 -12.597656 37.679688 -9.875 36.140625 -7.40625 C 34.609375 -4.9375 32.628906 -2.9375 30.203125 -1.40625 C 27.773438 0.125 24.816406 0.890625 21.328125 0.890625 C 17.921875 0.890625 14.984375 0.125 12.515625 -1.40625 C 10.046875 -2.9375 8.066406 -4.957031 6.578125 -7.46875 C 5.085938 -9.976562 3.976562 -12.703125 3.25 -15.640625 C 2.53125 -18.578125 2.171875 -21.453125 2.171875 -24.265625 C 2.171875 -26.910156 2.507812 -29.742188 3.1875 -32.765625 C 3.875 -35.785156 4.960938 -38.613281 6.453125 -41.25 C 7.941406 -43.894531 9.859375 -46.046875 12.203125 -47.703125 C 14.546875 -49.367188 17.421875 -50.203125 20.828125 -50.203125 Z M 21.203125 -1.15625 C 23.503906 -1.15625 25.378906 -2.023438 26.828125 -3.765625 C 28.273438 -5.515625 29.359375 -7.6875 30.078125 -10.28125 C 30.804688 -12.875 31.316406 -15.445312 31.609375 -18 C 31.910156 -20.5625 32.0625 -22.648438 32.0625 -24.265625 C 32.0625 -25.890625 31.929688 -28.019531 31.671875 -30.65625 C 31.421875 -33.289062 30.929688 -35.945312 30.203125 -38.625 C 29.484375 -41.3125 28.398438 -43.59375 26.953125 -45.46875 C 25.503906 -47.34375 23.628906 -48.28125 21.328125 -48.28125 C 19.035156 -48.28125 17.1875 -47.34375 15.78125 -45.46875 C 14.375 -43.59375 13.304688 -41.289062 12.578125 -38.5625 C 11.859375 -35.84375 11.367188 -33.160156 11.109375 -30.515625 C 10.859375 -27.878906 10.734375 -25.796875 10.734375 -24.265625 C 10.734375 -22.734375 10.859375 -20.710938 11.109375 -18.203125 C 11.367188 -15.691406 11.878906 -13.113281 12.640625 -10.46875 C 13.410156 -7.832031 14.476562 -5.617188 15.84375 -3.828125 C 17.207031 -2.046875 18.992188 -1.15625 21.203125 -1.15625 Z M 21.203125 -1.15625 "/></g></g><g style="fill:#b88917;fill-opacity:1;"><g transform="translate(248.099977, 270.450981)"><path style="stroke:none" d="M 25.15625 -50.203125 C 28.3125 -50.203125 31.035156 -49.347656 33.328125 -47.640625 C 35.628906 -45.941406 36.78125 -43.472656 36.78125 -40.234375 C 36.78125 -37.847656 36.015625 -35.71875 34.484375 -33.84375 C 32.953125 -31.976562 30.867188 -31.046875 28.234375 -31.046875 C 26.097656 -31.046875 24.328125 -31.957031 22.921875 -33.78125 C 21.523438 -35.613281 20.738281 -37.722656 20.5625 -40.109375 C 21.664062 -39.085938 22.6875 -38.363281 23.625 -37.9375 C 24.5625 -37.507812 25.457031 -37.296875 26.3125 -37.296875 C 27.59375 -37.296875 28.550781 -37.804688 29.1875 -38.828125 C 29.820312 -39.847656 30.140625 -40.914062 30.140625 -42.03125 C 30.140625 -43.476562 29.671875 -44.773438 28.734375 -45.921875 C 27.796875 -47.066406 26.476562 -47.640625 24.78125 -47.640625 C 22.144531 -47.640625 20.035156 -46.832031 18.453125 -45.21875 C 16.878906 -43.601562 15.707031 -41.582031 14.9375 -39.15625 C 14.175781 -36.726562 13.644531 -34.234375 13.34375 -31.671875 C 13.050781 -29.117188 12.90625 -26.945312 12.90625 -25.15625 C 12.820312 -22.351562 12.78125 -19.546875 12.78125 -16.734375 C 12.78125 -13.921875 12.78125 -11.109375 12.78125 -8.296875 C 12.78125 -6.515625 13.222656 -5.003906 14.109375 -3.765625 C 15.003906 -2.535156 16.390625 -1.707031 18.265625 -1.28125 L 18.015625 0 L 0.390625 0 L 0.125 -1.28125 C 2.164062 -1.789062 3.570312 -2.679688 4.34375 -3.953125 C 5.113281 -5.234375 5.5 -6.8125 5.5 -8.6875 C 5.5 -11.582031 5.5 -14.429688 5.5 -17.234375 C 5.5 -20.046875 5.453125 -22.859375 5.359375 -25.671875 L 5.359375 -42.53125 C 5.359375 -43.894531 4.804688 -44.789062 3.703125 -45.21875 C 2.597656 -45.644531 1.445312 -45.859375 0.25 -45.859375 L 0 -47.140625 L 13.03125 -50.203125 L 13.03125 -41.390625 C 14.21875 -43.773438 15.8125 -45.835938 17.8125 -47.578125 C 19.820312 -49.328125 22.269531 -50.203125 25.15625 -50.203125 Z M 25.15625 -50.203125 "/></g></g><g style="fill:#b88917;fill-opacity:1;"><g transform="translate(285.270532, 270.450981)"><path style="stroke:none" d="M 22.21875 -10.984375 L 22.21875 -13.15625 C 22.21875 -15.113281 22.789062 -16.921875 23.9375 -18.578125 C 25.09375 -20.242188 26.78125 -21.078125 29 -21.078125 C 31.71875 -21.078125 33.820312 -20.179688 35.3125 -18.390625 C 36.800781 -16.609375 37.546875 -14.476562 37.546875 -12 C 37.546875 -9.28125 36.757812 -6.960938 35.1875 -5.046875 C 33.613281 -3.128906 31.632812 -1.660156 29.25 -0.640625 C 26.863281 0.378906 24.4375 0.890625 21.96875 0.890625 C 17.195312 0.890625 13.34375 -0.40625 10.40625 -3 C 7.46875 -5.59375 5.359375 -8.828125 4.078125 -12.703125 C 2.804688 -16.578125 2.171875 -20.472656 2.171875 -24.390625 C 2.171875 -27.378906 2.488281 -30.382812 3.125 -33.40625 C 3.769531 -36.425781 4.816406 -39.210938 6.265625 -41.765625 C 7.710938 -44.316406 9.691406 -46.359375 12.203125 -47.890625 C 14.710938 -49.429688 17.796875 -50.203125 21.453125 -50.203125 C 25.628906 -50.203125 28.84375 -49.15625 31.09375 -47.0625 C 33.351562 -44.976562 34.953125 -42.335938 35.890625 -39.140625 C 36.828125 -35.953125 37.296875 -32.695312 37.296875 -29.375 L 37.296875 -28.109375 L 10.984375 -28.109375 C 10.898438 -27.503906 10.835938 -26.90625 10.796875 -26.3125 C 10.753906 -25.71875 10.734375 -25.078125 10.734375 -24.390625 C 10.734375 -22.347656 10.921875 -20.003906 11.296875 -17.359375 C 11.679688 -14.722656 12.34375 -12.191406 13.28125 -9.765625 C 14.21875 -7.335938 15.554688 -5.335938 17.296875 -3.765625 C 19.046875 -2.191406 21.285156 -1.40625 24.015625 -1.40625 C 26.054688 -1.40625 27.800781 -2 29.25 -3.1875 C 30.695312 -4.382812 31.421875 -6.003906 31.421875 -8.046875 C 31.421875 -9.578125 31.035156 -10.9375 30.265625 -12.125 C 29.503906 -13.320312 28.269531 -13.921875 26.5625 -13.921875 C 25.207031 -13.921875 23.757812 -12.941406 22.21875 -10.984375 Z M 21.453125 -47.90625 C 19.492188 -47.90625 17.875 -47.285156 16.59375 -46.046875 C 15.320312 -44.816406 14.320312 -43.265625 13.59375 -41.390625 C 12.875 -39.515625 12.34375 -37.578125 12 -35.578125 C 11.664062 -33.578125 11.410156 -31.804688 11.234375 -30.265625 L 30.265625 -30.265625 C 30.179688 -31.710938 30.007812 -33.4375 29.75 -35.4375 C 29.5 -37.445312 29.078125 -39.410156 28.484375 -41.328125 C 27.890625 -43.242188 27.015625 -44.816406 25.859375 -46.046875 C 24.710938 -47.285156 23.242188 -47.90625 21.453125 -47.90625 Z M 21.453125 -47.90625 "/></g></g><g style="fill:#b88917;fill-opacity:1;"><g transform="translate(324.740303, 270.450981)"><path style="stroke:none" d="M 12.265625 -42.40625 C 12.265625 -40.28125 13.203125 -38.21875 15.078125 -36.21875 C 16.953125 -34.21875 19.035156 -32.191406 21.328125 -30.140625 C 24.222656 -27.753906 26.90625 -25.15625 29.375 -22.34375 C 31.84375 -19.539062 33.078125 -16.304688 33.078125 -12.640625 C 33.078125 -8.210938 31.628906 -4.847656 28.734375 -2.546875 C 25.835938 -0.253906 22.304688 0.890625 18.140625 0.890625 C 15.328125 0.890625 12.617188 0.378906 10.015625 -0.640625 C 7.421875 -1.660156 5.269531 -3.191406 3.5625 -5.234375 C 1.863281 -7.273438 1.015625 -9.832031 1.015625 -12.90625 C 1.015625 -15.113281 1.675781 -16.960938 3 -18.453125 C 4.320312 -19.941406 6.175781 -20.6875 8.5625 -20.6875 C 10.851562 -20.6875 12.703125 -19.625 14.109375 -17.5 C 15.515625 -15.375 16.304688 -13.078125 16.484375 -10.609375 C 15.878906 -11.367188 15.210938 -12.003906 14.484375 -12.515625 C 13.765625 -13.023438 13.023438 -13.28125 12.265625 -13.28125 C 10.898438 -13.28125 9.875 -12.832031 9.1875 -11.9375 C 8.507812 -11.050781 8.171875 -9.96875 8.171875 -8.6875 C 8.171875 -6.132812 9.234375 -4.257812 11.359375 -3.0625 C 13.492188 -1.875 15.710938 -1.28125 18.015625 -1.28125 C 20.484375 -1.28125 22.738281 -1.832031 24.78125 -2.9375 C 26.820312 -4.039062 27.84375 -5.957031 27.84375 -8.6875 C 27.84375 -10.894531 26.820312 -13.109375 24.78125 -15.328125 C 22.738281 -17.546875 20.484375 -19.757812 18.015625 -21.96875 C 15.117188 -24.519531 12.367188 -27.203125 9.765625 -30.015625 C 7.171875 -32.828125 5.875 -35.976562 5.875 -39.46875 C 5.875 -42.53125 7 -45.082031 9.25 -47.125 C 11.507812 -49.175781 14.175781 -50.203125 17.25 -50.203125 C 18.863281 -50.203125 20.457031 -50.050781 22.03125 -49.75 C 23.601562 -49.457031 25.203125 -49.3125 26.828125 -49.3125 C 27.585938 -49.3125 28.304688 -49.375 28.984375 -49.5 C 29.671875 -49.625 30.269531 -49.859375 30.78125 -50.203125 L 30.78125 -35.375 L 29.640625 -35.125 C 28.953125 -37 28.078125 -38.914062 27.015625 -40.875 C 25.953125 -42.832031 24.628906 -44.515625 23.046875 -45.921875 C 21.472656 -47.328125 19.582031 -48.03125 17.375 -48.03125 C 15.664062 -48.03125 14.382812 -47.453125 13.53125 -46.296875 C 12.6875 -45.148438 12.265625 -43.851562 12.265625 -42.40625 Z M 12.265625 -42.40625 "/></g></g><g style="fill:#b88917;fill-opacity:1;"><g transform="translate(40.61849, 235.588068)"><path style="stroke:none" d="M 24.171875 -51.46875 C 27.648438 -51.46875 30.40625 -50.703125 32.4375 -49.171875 C 34.46875 -47.648438 35.484375 -45.472656 35.484375 -42.640625 C 35.484375 -40.285156 34.921875 -38.207031 33.796875 -36.40625 C 32.679688 -34.613281 31.238281 -33.019531 29.46875 -31.625 C 27.695312 -30.238281 25.820312 -28.929688 23.84375 -27.703125 C 25.507812 -24.921875 27.359375 -22.164062 29.390625 -19.4375 C 31.421875 -16.707031 33.425781 -14.242188 35.40625 -12.046875 C 36.851562 -14.242188 37.960938 -16.238281 38.734375 -18.03125 C 39.515625 -19.820312 39.90625 -20.90625 39.90625 -21.28125 C 39.90625 -21.925781 39.570312 -22.300781 38.90625 -22.40625 C 38.238281 -22.507812 37.632812 -22.5625 37.09375 -22.5625 C 36.71875 -22.613281 36.476562 -22.640625 36.375 -22.640625 C 36.269531 -22.910156 36.21875 -23.242188 36.21875 -23.640625 C 36.21875 -24.046875 36.296875 -24.328125 36.453125 -24.484375 L 42.640625 -24.484375 C 44.023438 -24.484375 45.359375 -24.535156 46.640625 -24.640625 C 47.929688 -24.753906 49.488281 -24.835938 51.3125 -24.890625 C 51.414062 -24.835938 51.453125 -24.445312 51.421875 -23.71875 C 51.398438 -23 51.335938 -22.640625 51.234375 -22.640625 C 50.535156 -22.640625 49.554688 -22.492188 48.296875 -22.203125 C 47.035156 -21.910156 46.191406 -21.628906 45.765625 -21.359375 C 45.660156 -21.304688 45.257812 -20.691406 44.5625 -19.515625 C 43.863281 -18.335938 42.9375 -16.863281 41.78125 -15.09375 C 40.632812 -13.332031 39.257812 -11.515625 37.65625 -9.640625 C 39.425781 -7.816406 40.910156 -6.34375 42.109375 -5.21875 C 43.316406 -4.09375 44.375 -3.53125 45.28125 -3.53125 C 45.875 -3.53125 46.453125 -3.753906 47.015625 -4.203125 C 47.578125 -4.660156 48.082031 -5.1875 48.53125 -5.78125 C 48.988281 -6.375 49.269531 -6.828125 49.375 -7.140625 C 49.8125 -7.140625 50.226562 -6.96875 50.625 -6.625 C 51.03125 -6.28125 51.234375 -5.972656 51.234375 -5.703125 C 51.117188 -5.484375 50.765625 -4.90625 50.171875 -3.96875 C 49.585938 -3.03125 48.691406 -2.132812 47.484375 -1.28125 C 46.285156 -0.425781 44.671875 0 42.640625 0 C 41.460938 0 40.335938 -0.28125 39.265625 -0.84375 C 38.191406 -1.40625 37.226562 -2.0625 36.375 -2.8125 C 35.519531 -3.5625 34.847656 -4.21875 34.359375 -4.78125 C 33.878906 -5.34375 33.640625 -5.625 33.640625 -5.625 C 31.765625 -3.957031 29.554688 -2.5625 27.015625 -1.4375 C 24.472656 -0.320312 21.921875 0.234375 19.359375 0.234375 C 14.804688 0.234375 11.132812 -0.875 8.34375 -3.09375 C 5.5625 -5.3125 4.171875 -8.398438 4.171875 -12.359375 C 4.171875 -14.878906 4.800781 -17.0625 6.0625 -18.90625 C 7.320312 -20.757812 8.941406 -22.367188 10.921875 -23.734375 C 12.898438 -25.097656 14.988281 -26.34375 17.1875 -27.46875 C 16.113281 -29.332031 15.082031 -31.335938 14.09375 -33.484375 C 13.101562 -35.628906 12.609375 -38.035156 12.609375 -40.703125 C 12.609375 -42.691406 13.113281 -44.5 14.125 -46.125 C 15.144531 -47.757812 16.523438 -49.054688 18.265625 -50.015625 C 20.003906 -50.984375 21.972656 -51.46875 24.171875 -51.46875 Z M 31.796875 -7.46875 C 30.515625 -8.75 29.132812 -10.351562 27.65625 -12.28125 C 26.1875 -14.207031 24.796875 -16.109375 23.484375 -17.984375 C 22.171875 -19.859375 21.085938 -21.4375 20.234375 -22.71875 C 19.378906 -24.007812 18.953125 -24.65625 18.953125 -24.65625 C 17.554688 -23.6875 16.242188 -22.707031 15.015625 -21.71875 C 13.785156 -20.726562 12.796875 -19.578125 12.046875 -18.265625 C 11.296875 -16.953125 10.921875 -15.359375 10.921875 -13.484375 C 10.921875 -11.023438 11.441406 -9.03125 12.484375 -7.5 C 13.523438 -5.976562 14.898438 -4.867188 16.609375 -4.171875 C 18.328125 -3.472656 20.125 -3.125 22 -3.125 C 23.550781 -3.125 25.265625 -3.507812 27.140625 -4.28125 C 29.015625 -5.0625 30.566406 -6.125 31.796875 -7.46875 Z M 24.578125 -48.578125 C 22.910156 -48.578125 21.460938 -48.023438 20.234375 -46.921875 C 19.003906 -45.828125 18.390625 -44.375 18.390625 -42.5625 C 18.390625 -40.632812 18.75 -38.664062 19.46875 -36.65625 C 20.195312 -34.644531 21.175781 -32.488281 22.40625 -30.1875 C 24.863281 -31.582031 26.773438 -33.082031 28.140625 -34.6875 C 29.503906 -36.289062 30.1875 -38.59375 30.1875 -41.59375 C 30.1875 -43.363281 29.691406 -44.96875 28.703125 -46.40625 C 27.710938 -47.851562 26.335938 -48.578125 24.578125 -48.578125 Z M 24.578125 -48.578125 "/></g></g><g clip-rule="nonzero" clip-path="url(#b759992663)"><path style=" stroke:none;fill-rule:nonzero;fill:#b88917;fill-opacity:1;" d="M 317.886719 162.148438 C 317.492188 156.785156 315.792969 151.808594 313.71875 147.574219 C 309.707031 139.378906 304.296875 133.976562 304.296875 133.976562 C 304.296875 133.976562 298.886719 139.378906 294.875 147.574219 C 292.800781 151.808594 291.101562 156.785156 290.707031 162.148438 C 290.652344 162.914062 290.625 163.6875 290.625 164.464844 C 290.625 170.007812 292.105469 175.203125 294.09375 179.683594 C 297.425781 187.191406 302.175781 192.675781 303.757812 194.386719 C 301.8125 191.601562 295.238281 181.28125 295.238281 168.972656 C 295.238281 154.527344 304.296875 142.8125 304.296875 142.8125 C 304.296875 142.8125 313.355469 154.527344 313.355469 168.972656 C 313.355469 181.277344 306.785156 191.59375 304.835938 194.386719 C 306.421875 192.671875 311.171875 187.1875 314.5 179.683594 C 316.488281 175.203125 317.96875 170.007812 317.96875 164.464844 C 317.96875 163.6875 317.941406 162.914062 317.886719 162.148438 "/></g><path style=" stroke:none;fill-rule:nonzero;fill:#b88917;fill-opacity:1;" d="M 278.152344 184.285156 C 267.933594 174.070312 266.679688 158.757812 266.679688 158.757812 C 266.679688 158.757812 280.050781 159.855469 290.140625 168.335938 C 290.007812 167.160156 289.933594 165.957031 289.933594 164.742188 C 289.933594 163.960938 289.960938 163.191406 290.019531 162.425781 C 285.945312 158.910156 281.226562 156.59375 276.765625 155.066406 C 268.132812 152.105469 260.484375 152.113281 260.484375 152.113281 C 260.484375 152.113281 260.480469 159.757812 263.441406 168.394531 C 264.96875 172.851562 267.285156 177.574219 270.800781 181.640625 C 271.300781 182.222656 271.828125 182.789062 272.378906 183.339844 C 280.347656 191.3125 291.640625 193.9375 298.238281 194.804688 C 292.851562 193.53125 284.511719 190.648438 278.152344 184.285156 "/><path style=" stroke:none;fill-rule:nonzero;fill:#b88917;fill-opacity:1;" d="M 252.621094 174.570312 C 252.621094 174.570312 257.34375 172.890625 263.914062 172.410156 C 263.3125 171.0625 262.785156 169.714844 262.332031 168.394531 C 253.222656 168.964844 249.132812 172.953125 249.132812 172.953125 C 249.132812 172.953125 249.082031 178.960938 255.121094 185.808594 C 256.589844 185.089844 258.152344 184.414062 259.785156 183.824219 C 255.09375 179.050781 252.621094 174.570312 252.621094 174.570312 "/><g clip-rule="nonzero" clip-path="url(#86aa1717fc)"><path style=" stroke:none;fill-rule:nonzero;fill:#b88917;fill-opacity:1;" d="M 283.65625 201.210938 C 269.242188 202.226562 256.863281 193.136719 256.863281 193.136719 C 256.863281 193.136719 262.886719 187.25 271.863281 183.78125 C 271.449219 183.351562 271.046875 182.917969 270.664062 182.472656 C 265.296875 182.863281 260.320312 184.5625 256.089844 186.632812 C 247.890625 190.648438 242.488281 189.277344 242.488281 189.277344 C 242.488281 189.277344 256.136719 204.226562 272.976562 204.226562 C 289.816406 204.226562 303.46875 196.054688 303.46875 196.054688 C 303.46875 196.054688 302.242188 196.058594 300.214844 195.867188 C 295.824219 198.371094 290.082031 200.757812 283.65625 201.210938 "/></g><path style=" stroke:none;fill-rule:nonzero;fill:#b88917;fill-opacity:1;" d="M 282.148438 142.8125 C 282.148438 142.8125 287.03125 145.410156 292.179688 150.433594 C 292.707031 149.054688 293.289062 147.730469 293.902344 146.46875 C 287.058594 140.429688 281.195312 140.890625 281.195312 140.890625 C 281.195312 140.890625 277.0625 144.574219 276.492188 153.683594 C 278.050781 154.21875 279.644531 154.851562 281.230469 155.597656 C 280.839844 148.300781 282.148438 142.8125 282.148438 142.8125 "/><path style=" stroke:none;fill-rule:nonzero;fill:#b88917;fill-opacity:1;" d="M 330.441406 184.285156 C 340.660156 174.070312 341.914062 158.757812 341.914062 158.757812 C 341.914062 158.757812 328.542969 159.855469 318.453125 168.335938 C 318.585938 167.160156 318.660156 165.957031 318.660156 164.742188 C 318.660156 163.960938 318.632812 163.191406 318.574219 162.425781 C 322.648438 158.910156 327.367188 156.59375 331.824219 155.066406 C 340.460938 152.105469 348.105469 152.113281 348.105469 152.113281 C 348.105469 152.113281 348.113281 159.757812 345.152344 168.394531 C 343.625 172.851562 341.308594 177.574219 337.792969 181.640625 C 337.292969 182.222656 336.765625 182.789062 336.214844 183.339844 C 328.246094 191.3125 316.953125 193.9375 310.355469 194.804688 C 315.742188 193.53125 324.078125 190.648438 330.441406 184.285156 "/><path style=" stroke:none;fill-rule:nonzero;fill:#b88917;fill-opacity:1;" d="M 355.972656 174.570312 C 355.972656 174.570312 351.25 172.890625 344.679688 172.410156 C 345.28125 171.0625 345.804688 169.714844 346.261719 168.394531 C 355.371094 168.964844 359.460938 172.953125 359.460938 172.953125 C 359.460938 172.953125 359.511719 178.960938 353.472656 185.808594 C 352.003906 185.089844 350.441406 184.414062 348.808594 183.824219 C 353.5 179.050781 355.972656 174.570312 355.972656 174.570312 "/><g clip-rule="nonzero" clip-path="url(#81eb712f36)"><path style=" stroke:none;fill-rule:nonzero;fill:#b88917;fill-opacity:1;" d="M 324.9375 201.210938 C 339.351562 202.226562 351.730469 193.136719 351.730469 193.136719 C 351.730469 193.136719 345.707031 187.25 336.726562 183.78125 C 337.140625 183.351562 337.546875 182.917969 337.929688 182.472656 C 343.296875 182.863281 348.273438 184.5625 352.503906 186.632812 C 360.703125 190.648438 366.105469 189.277344 366.105469 189.277344 C 366.105469 189.277344 352.457031 204.226562 335.617188 204.226562 C 318.777344 204.226562 305.125 196.054688 305.125 196.054688 C 305.125 196.054688 306.351562 196.058594 308.375 195.867188 C 312.769531 198.371094 318.511719 200.757812 324.9375 201.210938 "/></g><path style=" stroke:none;fill-rule:nonzero;fill:#b88917;fill-opacity:1;" d="M 326.445312 142.8125 C 326.445312 142.8125 321.5625 145.410156 316.410156 150.433594 C 315.886719 149.054688 315.304688 147.730469 314.6875 146.46875 C 321.535156 140.429688 327.398438 140.890625 327.398438 140.890625 C 327.398438 140.890625 331.53125 144.574219 332.101562 153.683594 C 330.542969 154.21875 328.949219 154.851562 327.363281 155.597656 C 327.753906 148.300781 326.445312 142.8125 326.445312 142.8125 "/><g style="fill:#b88917;fill-opacity:1;"><g transform="translate(159.468341, 299.460337)"><path style="stroke:none" d="M 4.953125 -11.546875 C 6.546875 -11.546875 7.914062 -10.976562 9.0625 -9.84375 C 10.195312 -8.71875 10.765625 -7.347656 10.765625 -5.734375 C 10.765625 -4.140625 10.195312 -2.769531 9.0625 -1.625 C 7.914062 -0.488281 6.546875 0.078125 4.953125 0.078125 L 0.53125 0.078125 L 0.53125 -11.546875 Z M 7.171875 -3.515625 C 7.773438 -4.128906 8.078125 -4.867188 8.078125 -5.734375 C 8.078125 -6.597656 7.773438 -7.34375 7.171875 -7.96875 C 6.554688 -8.582031 5.8125 -8.890625 4.9375 -8.890625 L 3.328125 -8.890625 L 3.328125 -2.609375 L 4.953125 -2.609375 C 5.816406 -2.609375 6.554688 -2.910156 7.171875 -3.515625 Z M 7.171875 -3.515625 "/></g></g><g style="fill:#b88917;fill-opacity:1;"><g transform="translate(177.421936, 299.460337)"><path style="stroke:none" d="M 3.328125 -4.5625 L 3.328125 -2.5 L 8.65625 -2.5 L 8.65625 0 L 0.53125 0 L 0.53125 -11.625 L 8.65625 -11.625 L 8.65625 -9.109375 L 3.328125 -9.109375 L 3.328125 -7.0625 L 7.84375 -7.0625 L 7.84375 -4.5625 Z M 3.328125 -4.5625 "/></g></g><g style="fill:#b88917;fill-opacity:1;"><g transform="translate(192.424993, 299.460337)"><path style="stroke:none" d="M 10.390625 -1.46875 C 9.253906 -0.519531 7.957031 -0.046875 6.5 -0.046875 C 4.863281 -0.046875 3.457031 -0.632812 2.28125 -1.8125 C 1.113281 -2.976562 0.53125 -4.382812 0.53125 -6.03125 C 0.53125 -7.6875 1.113281 -9.097656 2.28125 -10.265625 C 3.457031 -11.429688 4.863281 -12.015625 6.5 -12.015625 C 7.96875 -12.015625 9.265625 -11.535156 10.390625 -10.578125 L 8.59375 -8.8125 C 7.988281 -9.28125 7.289062 -9.515625 6.5 -9.515625 C 5.550781 -9.515625 4.738281 -9.171875 4.0625 -8.484375 C 3.375 -7.804688 3.03125 -6.988281 3.03125 -6.03125 C 3.03125 -5.070312 3.375 -4.253906 4.0625 -3.578125 C 4.738281 -2.898438 5.550781 -2.5625 6.5 -2.5625 C 7.289062 -2.5625 7.988281 -2.789062 8.59375 -3.25 Z M 10.390625 -1.46875 "/></g></g><g style="fill:#b88917;fill-opacity:1;"><g transform="translate(209.108978, 299.460337)"><path style="stroke:none" d="M 6.25 -11.5625 C 7.90625 -11.5625 9.320312 -10.976562 10.5 -9.8125 C 11.664062 -8.644531 12.25 -7.234375 12.25 -5.578125 C 12.25 -3.921875 11.664062 -2.507812 10.5 -1.34375 C 9.320312 -0.175781 7.90625 0.40625 6.25 0.40625 C 4.59375 0.40625 3.179688 -0.175781 2.015625 -1.34375 C 0.847656 -2.507812 0.265625 -3.921875 0.265625 -5.578125 C 0.265625 -7.234375 0.847656 -8.644531 2.015625 -9.8125 C 3.179688 -10.976562 4.59375 -11.5625 6.25 -11.5625 Z M 8.71875 -3.109375 C 9.394531 -3.785156 9.734375 -4.609375 9.734375 -5.578125 C 9.734375 -6.546875 9.394531 -7.367188 8.71875 -8.046875 C 8.039062 -8.722656 7.21875 -9.0625 6.25 -9.0625 C 5.289062 -9.0625 4.472656 -8.722656 3.796875 -8.046875 C 3.109375 -7.367188 2.765625 -6.546875 2.765625 -5.578125 C 2.765625 -4.609375 3.109375 -3.785156 3.796875 -3.109375 C 4.492188 -2.429688 5.3125 -2.09375 6.25 -2.09375 C 7.195312 -2.09375 8.019531 -2.429688 8.71875 -3.109375 Z M 8.71875 -3.109375 "/></g></g><g style="fill:#b88917;fill-opacity:1;"><g transform="translate(228.278567, 299.460337)"><path style="stroke:none" d="M 10.25 -7.65625 C 10.25 -6.90625 10.054688 -6.207031 9.671875 -5.5625 C 9.203125 -4.800781 8.546875 -4.269531 7.703125 -3.96875 L 10.203125 0 L 7.078125 0 L 4.640625 -3.703125 L 3.328125 -3.703125 L 3.328125 0 L 0.53125 0 L 0.53125 -11.625 L 6.09375 -11.625 C 7.414062 -11.625 8.460938 -11.1875 9.234375 -10.3125 C 9.910156 -9.550781 10.25 -8.664062 10.25 -7.65625 Z M 3.328125 -9.109375 L 3.328125 -6.203125 L 6.078125 -6.203125 C 6.460938 -6.203125 6.765625 -6.253906 6.984375 -6.359375 C 7.179688 -6.472656 7.320312 -6.578125 7.40625 -6.671875 C 7.519531 -6.804688 7.609375 -6.972656 7.671875 -7.171875 C 7.710938 -7.335938 7.734375 -7.5 7.734375 -7.65625 C 7.734375 -7.820312 7.710938 -7.988281 7.671875 -8.15625 C 7.597656 -8.34375 7.492188 -8.507812 7.359375 -8.65625 C 7.097656 -8.957031 6.675781 -9.109375 6.09375 -9.109375 Z M 3.328125 -9.109375 "/></g></g><g style="fill:#b88917;fill-opacity:1;"><g transform="translate(245.713594, 299.460337)"><path style="stroke:none" d="M 9.453125 0 L 8.609375 -1.625 L 4.234375 -1.625 L 3.390625 0 L 0.171875 0 L 6.4375 -11.625 L 12.671875 0 Z M 7.484375 -3.8125 L 6.4375 -5.84375 L 5.359375 -3.8125 Z M 7.484375 -3.8125 "/></g></g><g style="fill:#b88917;fill-opacity:1;"><g transform="translate(262.916164, 299.460337)"><path style="stroke:none" d="M 10.390625 -1.46875 C 9.253906 -0.519531 7.957031 -0.046875 6.5 -0.046875 C 4.863281 -0.046875 3.457031 -0.632812 2.28125 -1.8125 C 1.113281 -2.976562 0.53125 -4.382812 0.53125 -6.03125 C 0.53125 -7.6875 1.113281 -9.097656 2.28125 -10.265625 C 3.457031 -11.429688 4.863281 -12.015625 6.5 -12.015625 C 7.96875 -12.015625 9.265625 -11.535156 10.390625 -10.578125 L 8.59375 -8.8125 C 7.988281 -9.28125 7.289062 -9.515625 6.5 -9.515625 C 5.550781 -9.515625 4.738281 -9.171875 4.0625 -8.484375 C 3.375 -7.804688 3.03125 -6.988281 3.03125 -6.03125 C 3.03125 -5.070312 3.375 -4.253906 4.0625 -3.578125 C 4.738281 -2.898438 5.550781 -2.5625 6.5 -2.5625 C 7.289062 -2.5625 7.988281 -2.789062 8.59375 -3.25 Z M 10.390625 -1.46875 "/></g></g><g style="fill:#b88917;fill-opacity:1;"><g transform="translate(280.619428, 299.460337)"><path style="stroke:none" d="M 0.265625 -11.625 L 3.0625 -11.625 L 3.0625 0 L 0.265625 0 Z M 0.265625 -11.625 "/></g></g><g style="fill:#b88917;fill-opacity:1;"><g transform="translate(290.597625, 299.460337)"><path style="stroke:none" d="M 6.25 -11.5625 C 7.90625 -11.5625 9.320312 -10.976562 10.5 -9.8125 C 11.664062 -8.644531 12.25 -7.234375 12.25 -5.578125 C 12.25 -3.921875 11.664062 -2.507812 10.5 -1.34375 C 9.320312 -0.175781 7.90625 0.40625 6.25 0.40625 C 4.59375 0.40625 3.179688 -0.175781 2.015625 -1.34375 C 0.847656 -2.507812 0.265625 -3.921875 0.265625 -5.578125 C 0.265625 -7.234375 0.847656 -8.644531 2.015625 -9.8125 C 3.179688 -10.976562 4.59375 -11.5625 6.25 -11.5625 Z M 8.71875 -3.109375 C 9.394531 -3.785156 9.734375 -4.609375 9.734375 -5.578125 C 9.734375 -6.546875 9.394531 -7.367188 8.71875 -8.046875 C 8.039062 -8.722656 7.21875 -9.0625 6.25 -9.0625 C 5.289062 -9.0625 4.472656 -8.722656 3.796875 -8.046875 C 3.109375 -7.367188 2.765625 -6.546875 2.765625 -5.578125 C 2.765625 -4.609375 3.109375 -3.785156 3.796875 -3.109375 C 4.492188 -2.429688 5.3125 -2.09375 6.25 -2.09375 C 7.195312 -2.09375 8.019531 -2.429688 8.71875 -3.109375 Z M 8.71875 -3.109375 "/></g></g><g style="fill:#b88917;fill-opacity:1;"><g transform="translate(309.767214, 299.460337)"><path style="stroke:none" d="M 8.140625 -11.625 L 10.921875 -11.625 L 10.921875 0 L 3.21875 -5.671875 L 3.21875 0 L 0.421875 0 L 0.421875 -11.625 L 8.140625 -5.6875 Z M 8.140625 -11.625 "/></g></g><g style="fill:#b88917;fill-opacity:1;"><g transform="translate(327.77446, 299.460337)"><path style="stroke:none" d="M 3.328125 -4.5625 L 3.328125 -2.5 L 8.65625 -2.5 L 8.65625 0 L 0.53125 0 L 0.53125 -11.625 L 8.65625 -11.625 L 8.65625 -9.109375 L 3.328125 -9.109375 L 3.328125 -7.0625 L 7.84375 -7.0625 L 7.84375 -4.5625 Z M 3.328125 -4.5625 "/></g></g><g style="fill:#b88917;fill-opacity:1;"><g transform="translate(342.992103, 299.460337)"><path style="stroke:none" d="M 5.265625 0.015625 C 4.484375 0.015625 3.796875 -0.0976562 3.203125 -0.328125 C 2.722656 -0.515625 2.234375 -0.828125 1.734375 -1.265625 C 1.160156 -1.796875 0.796875 -2.445312 0.640625 -3.21875 C 0.578125 -3.46875 0.546875 -3.71875 0.546875 -3.96875 C 0.535156 -4.050781 0.535156 -4.132812 0.546875 -4.21875 L 0.546875 -4.34375 L 3 -4.3125 L 3 -4.328125 C 3 -3.890625 3.09375 -3.523438 3.28125 -3.234375 C 3.644531 -2.703125 4.304688 -2.4375 5.265625 -2.4375 C 6.816406 -2.4375 7.59375 -2.796875 7.59375 -3.515625 C 7.59375 -4.222656 6.796875 -4.664062 5.203125 -4.84375 C 4.285156 -4.945312 3.5 -5.140625 2.84375 -5.421875 C 2.238281 -5.671875 1.742188 -6.003906 1.359375 -6.421875 C 0.816406 -7.015625 0.546875 -7.703125 0.546875 -8.484375 C 0.546875 -8.972656 0.640625 -9.429688 0.828125 -9.859375 C 0.953125 -10.179688 1.128906 -10.476562 1.359375 -10.75 C 2.191406 -11.6875 3.515625 -12.15625 5.328125 -12.15625 C 6.410156 -12.15625 7.328125 -11.941406 8.078125 -11.515625 C 8.648438 -11.191406 9.113281 -10.757812 9.46875 -10.21875 C 9.726562 -9.8125 9.914062 -9.347656 10.03125 -8.828125 C 10.0625 -8.648438 10.082031 -8.472656 10.09375 -8.296875 C 10.113281 -8.234375 10.125 -8.171875 10.125 -8.109375 L 10.125 -8.015625 L 7.671875 -8.015625 L 7.671875 -7.984375 C 7.679688 -8.347656 7.59375 -8.65625 7.40625 -8.90625 C 7.019531 -9.4375 6.328125 -9.703125 5.328125 -9.703125 C 4.722656 -9.703125 4.222656 -9.625 3.828125 -9.46875 C 3.335938 -9.28125 3.09375 -9.007812 3.09375 -8.65625 C 3.09375 -7.914062 3.882812 -7.457031 5.46875 -7.28125 C 7.257812 -7.070312 8.546875 -6.515625 9.328125 -5.609375 C 9.859375 -4.992188 10.125 -4.296875 10.125 -3.515625 L 10.125 -3.359375 C 10.125 -3.285156 10.113281 -3.210938 10.09375 -3.140625 C 10.082031 -2.953125 10.0625 -2.773438 10.03125 -2.609375 C 9.90625 -2.128906 9.675781 -1.707031 9.34375 -1.34375 C 8.957031 -0.894531 8.425781 -0.554688 7.75 -0.328125 C 7.082031 -0.0976562 6.253906 0.015625 5.265625 0.015625 Z M 5.265625 0.015625 "/></g></g></g></svg>