<?xml version="1.0" standalone="no"?>
<!DOCTYPE svg PUBLIC "-//W3C//DTD SVG 20010904//EN"
 "http://www.w3.org/TR/2001/REC-SVG-20010904/DTD/svg10.dtd">
<svg version="1.0" xmlns="http://www.w3.org/2000/svg"
 width="512.000000pt" height="512.000000pt" viewBox="0 0 512.000000 512.000000"
 preserveAspectRatio="xMidYMid meet">

<g transform="translate(0.000000,512.000000) scale(0.100000,-0.100000)"
fill="#000000" stroke="none">
<path d="M2341 4699 c-348 -39 -696 -164 -976 -352 -158 -106 -365 -297 -486
-447 -227 -283 -384 -644 -446 -1025 -27 -167 -24 -488 5 -656 42 -234 99
-413 199 -616 236 -481 666 -868 1176 -1057 128 -48 251 -80 406 -108 169 -29
491 -32 656 -5 395 65 723 208 1025 448 103 81 295 277 372 379 211 280 345
594 410 959 29 168 31 479 5 650 -58 367 -198 701 -418 993 -80 107 -300 327
-407 407 -284 214 -606 352 -957 412 -140 23 -435 33 -564 18z m501 -214
c1001 -146 1730 -1048 1658 -2052 -20 -288 -91 -536 -221 -782 -459 -864
-1486 -1255 -2399 -914 -665 248 -1135 831 -1247 1546 -21 136 -21 418 0 554
67 428 254 801 552 1098 339 339 756 527 1265 569 75 6 289 -4 392 -19z"/>
<path d="M2511 3876 c-51 -28 -50 -15 -51 -704 0 -420 4 -650 10 -662 6 -11
19 -24 30 -30 54 -29 699 -240 733 -240 49 0 73 13 92 50 22 43 18 76 -12 109
-23 24 -80 46 -340 133 l-313 103 0 587 c0 434 -3 594 -12 613 -22 48 -88 68
-137 41z"/>
</g>
</svg>
